<?xml version="1.0" encoding="UTF-8"?>
<svg width="64px" height="157px" viewBox="0 0 64 157" version="1.1" xmlns="http://www.w3.org/2000/svg" xmlns:xlink="http://www.w3.org/1999/xlink">
    <title>Language/中文</title>
    <defs>
        <linearGradient x1="50%" y1="0%" x2="50%" y2="100%" id="linearGradient-1">
            <stop stop-color="#00B2FF" offset="0%"></stop>
            <stop stop-color="#007AFF" offset="100%"></stop>
        </linearGradient>
    </defs>
    <g id="Language/中文" stroke="none" stroke-width="1" fill="none" fill-rule="evenodd">
        <path d="M0,0 L64,0 L64,157 L32,133 L0,157 L0,0 Z" id="形状结合" fill="url(#linearGradient-1)"></path>
        <text id="中文" font-family="PingFangSC-Regular, PingFang SC" font-size="17" font-weight="normal" letter-spacing="0.193051036" fill="#FFFFFF">
            <tspan x="15" y="105">中文</tspan>
        </text>
        <g id="globe" transform="translate(16.000000, 50.000000)" fill-rule="nonzero">
            <rect id="矩形" fill="#000000" opacity="0" x="0" y="6" width="20.2832" height="19.9316"></rect>
            <path d="M15.9999839,31.1215296 C20.3607889,31.1215296 23.9215737,24.6744337 23.9215737,16.0313544 C23.9215737,7.34116324 20.3763697,0.894117127 15.9999839,0.894117127 C11.6235178,0.894117127 8.07842625,7.34116324 8.07842625,16.0313544 C8.07842625,24.6744337 11.6391951,31.1215296 15.9999839,31.1215296 Z M15.9999839,2.79215135 C19.0744859,2.79215135 21.8196056,8.90980077 21.8196056,16.0313544 C21.8196056,23.0273618 19.0744859,29.2078165 15.9999839,29.2078165 C12.925482,29.2078165 10.1803784,23.0273618 10.1803784,16.0313544 C10.1803784,8.90980077 12.925482,2.79215135 15.9999839,2.79215135 Z M14.9803703,1.11372349 L14.9803703,30.823566 L17.0353229,30.823566 L17.0353229,1.11372349 L14.9803703,1.11372349 Z M15.9999839,21.8979917 C11.1686054,21.8979917 6.88626687,23.1685532 4.69018718,25.1921353 L6.27450193,26.4940191 C8.34508355,24.847108 11.7176293,23.9528961 15.9999839,23.9528961 C20.2824028,23.9528961 23.6549325,24.847108 25.7254178,26.4940191 L27.3098449,25.1921353 C25.1137492,23.1685532 20.8314267,21.8979917 15.9999839,21.8979917 Z M30.4783781,14.9646931 L1.52156732,14.9646931 L1.52156732,17.0195815 L30.4783781,17.0195815 L30.4783781,14.9646931 Z M15.9999839,10.1803784 C20.8314267,10.1803784 25.1137492,8.90980077 27.3098449,6.88626687 L25.7254178,5.5843027 C23.6549325,7.21568124 20.2824028,8.12547398 15.9999839,8.12547398 C11.7176293,8.12547398 8.34508355,7.21568124 6.27450193,5.5843027 L4.69018718,6.88626687 C6.88626687,8.90980077 11.1686054,10.1803784 15.9999839,10.1803784 Z M15.9999839,32 C24.7529804,32 32,24.7372389 32,15.9999839 C32,7.24705174 24.7372389,0 15.9842907,0 C7.24705174,0 0,7.24705174 0,15.9999839 C0,24.7372389 7.26272896,32 15.9999839,32 Z M15.9999839,29.8667095 C8.42351784,29.8667095 2.13332262,23.5763858 2.13332262,15.9999839 C2.13332262,8.42351784 8.40784062,2.13332262 15.9842907,2.13332262 C23.5608049,2.13332262 29.8667095,8.42351784 29.8667095,15.9999839 C29.8667095,23.5763858 23.5763858,29.8667095 15.9999839,29.8667095 Z" id="形状" fill="#FFFFFF"></path>
        </g>
    </g>
</svg>