<?xml version="1.0" encoding="UTF-8"?>
<svg width="24px" height="24px" viewBox="0 0 24 24" version="1.1" xmlns="http://www.w3.org/2000/svg" xmlns:xlink="http://www.w3.org/1999/xlink">
    <title>icons8-instagram</title>
    <g id="页面-1" stroke="none" stroke-width="1" fill="none" fill-rule="evenodd">
        <g id="桌面端-HD" transform="translate(-790.000000, -841.000000)" fill="#87510C" fill-rule="nonzero">
            <g id="编组-2" transform="translate(626.000000, 841.000000)">
                <g id="icons8-instagram" transform="translate(164.000000, 0.000000)">
                    <path d="M6.66666667,0 C2.98533333,0 0,2.98533333 0,6.66666667 L0,17.3333333 C0,21.0146667 2.98533333,24 6.66666667,24 L17.3333333,24 C21.0146667,24 24,21.0146667 24,17.3333333 L24,6.66666667 C24,2.98533333 21.0146667,0 17.3333333,0 L6.66666667,0 Z M20,2.66666667 C20.736,2.66666667 21.3333333,3.264 21.3333333,4 C21.3333333,4.736 20.736,5.33333333 20,5.33333333 C19.264,5.33333333 18.6666667,4.736 18.6666667,4 C18.6666667,3.264 19.264,2.66666667 20,2.66666667 Z M12,5.33333333 C15.6813333,5.33333333 18.6666667,8.31866667 18.6666667,12 C18.6666667,15.6813333 15.6813333,18.6666667 12,18.6666667 C8.31866667,18.6666667 5.33333333,15.6813333 5.33333333,12 C5.33333333,8.31866667 8.31866667,5.33333333 12,5.33333333 Z M12,8 C9.790861,8 8,9.790861 8,12 C8,14.209139 9.790861,16 12,16 C14.209139,16 16,14.209139 16,12 C16,9.790861 14.209139,8 12,8 Z" id="形状"></path>
                </g>
            </g>
        </g>
    </g>
</svg>