<?xml version="1.0" encoding="UTF-8"?>
<svg width="27px" height="22px" viewBox="0 0 27 22" version="1.1" xmlns="http://www.w3.org/2000/svg" xmlns:xlink="http://www.w3.org/1999/xlink">
    <title>icons8-twitter</title>
    <g id="页面-1" stroke="none" stroke-width="1" fill="none" fill-rule="evenodd">
        <g id="桌面端-HD" transform="translate(-708.000000, -842.000000)" fill="#87510C" fill-rule="nonzero">
            <g id="编组-2" transform="translate(626.000000, 841.000000)">
                <g id="icons8-twitter" transform="translate(82.000000, 1.000000)">
                    <path d="M27,-6.10584502e-16 C25.947,0.636585213 23.83425,1.50415599 22.59225,1.75439035 C22.5558,1.76401475 22.5261,1.77638898 22.491,1.78601337 C21.39345,0.683332292 19.88955,-6.10584502e-16 18.225,-6.10584502e-16 C14.87025,-6.10584502e-16 12.15,2.77045185 12.15,6.18711331 C12.15,6.36722705 12.13515,6.69858134 12.15,6.87457034 C7.62345,6.87457034 4.17825,4.46022124 1.70775,1.37491407 C1.4391,2.0623711 1.32165,3.14855322 1.32165,4.16873945 C1.32165,6.09499406 2.7999,7.98687582 5.10165,9.15967752 C4.67775,9.27104556 4.21065,9.35079058 3.72465,9.35079058 C2.9403,9.35079058 2.11005,9.14042872 1.35,8.5024686 C1.35,8.52584213 1.35,8.54784076 1.35,8.57258921 C1.35,11.264671 4.1553,13.0974314 6.6501,13.6075245 C6.14385,13.9113805 5.12325,13.9416286 4.6251,13.9416286 C4.2741,13.9416286 3.0321,13.7780139 2.7,13.7147678 C3.3939,15.9215049 5.8968,17.1616774 8.28225,17.2056746 C6.41655,18.6960815 5.1219,19.248797 1.3014,19.248797 L0,19.248797 C2.4138,20.8244485 5.48775,22 8.56845,22 C18.59895,22 24.3,14.2138616 24.3,6.87457034 C24.3,6.75632773 24.2973,6.5088432 24.29325,6.25998375 C24.29325,6.2352353 24.3,6.21186176 24.3,6.18711331 C24.3,6.14999063 24.2892,6.11424286 24.2892,6.07712018 C24.28515,5.89013187 24.2811,5.71551778 24.27705,5.62477345 C25.34355,4.84107243 26.2683,3.86350853 27,2.74982814 C26.02125,3.19255047 24.97095,3.4895319 23.868,3.62427348 C24.9939,2.93681645 26.59365,1.29791888 27,-6.10584502e-16 Z" id="路径"></path>
                </g>
            </g>
        </g>
    </g>
</svg>