<?xml version="1.0" encoding="UTF-8"?>
<svg width="27px" height="22px" viewBox="0 0 27 22" version="1.1" xmlns="http://www.w3.org/2000/svg" xmlns:xlink="http://www.w3.org/1999/xlink">
    <title>icons8-weibo</title>
    <g id="页面-1" stroke="none" stroke-width="1" fill="none" fill-rule="evenodd">
        <g id="桌面端-HD" transform="translate(-626.000000, -842.000000)" fill="#87510C" fill-rule="nonzero">
            <g id="编组-2" transform="translate(626.000000, 841.000000)">
                <g id="icons8-weibo" transform="translate(0.000000, 1.000000)">
                    <path d="M19.2700384,0.0139974089 C18.9643327,0.0352194192 18.642813,0.0776634396 18.3423779,0.14132947 C17.7836739,0.263356369 17.4199878,0.815128634 17.5412165,1.37220606 C17.6571748,1.93459001 18.2053378,2.30066935 18.7640417,2.17864245 C20.4823226,1.81256311 22.353455,2.34841853 23.6131761,3.74907121 C24.8728972,5.15502905 25.2049579,7.07562165 24.6673358,8.75746562 C24.4933998,9.30393272 24.7991054,9.89814901 25.3419979,10.0732303 C25.8848905,10.2483115 26.4699494,9.94059303 26.6491559,9.39412593 C27.4081508,7.02787247 26.9443206,4.3645095 25.1733324,2.39086255 C23.8450912,0.905321838 21.9897703,0.0988854498 20.1555325,0.0139974089 C19.8498268,-0.00191943829 19.5757453,-0.00722460129 19.2700384,0.0139974089 Z M10.8789276,3.1124109 C8.99725293,3.31402068 6.34077062,4.79425487 4.00580666,7.14459284 C1.46001077,9.70715092 0,12.4341786 0,14.7845165 C0,19.2782775 5.70300437,22 11.3005914,22 C18.6375426,22 23.5288433,17.6813216 23.5288433,14.2751883 C23.5288433,12.2166533 21.831647,11.0653596 20.2820316,10.5825585 C19.9025342,10.4658381 19.6179117,10.4074773 19.8182014,9.90345417 C20.2504075,8.81052133 20.3294685,7.86083603 19.8603678,7.18703686 C18.9854159,5.92432794 16.5344937,5.98799397 13.7884082,7.14459284 C13.7884082,7.14459284 12.9345396,7.53720071 13.1559124,6.8474847 C13.5775763,5.47866572 13.5195971,4.32737065 12.8607477,3.66418317 C12.3969175,3.19199378 11.7327976,3.0222177 10.8789276,3.1124109 Z M19.9868669,3.66418317 C19.6864318,3.64826632 19.3965375,3.68540518 19.1013728,3.74907121 C18.6217298,3.8498761 18.3212947,4.36981467 18.4267106,4.85261574 C18.5321266,5.33541681 19.0012273,5.63783012 19.4808703,5.53172007 C20.055387,5.40969317 20.7036955,5.56885892 21.1253593,6.04104831 C21.5470232,6.5132377 21.6471687,7.13398252 21.4626904,7.69636511 C21.3098376,8.1685545 21.5417527,8.68849443 22.0108534,8.84235366 C22.4799542,8.99090773 23.0017635,8.76277078 23.1493459,8.2905814 C23.5183024,7.13928768 23.2969282,5.81821788 22.4325173,4.85261574 C21.7842088,4.13106739 20.8829033,3.70662719 19.9868669,3.66418317 Z M11.8909208,9.64879005 C15.6279164,9.78142727 18.6375426,11.6489642 18.8905409,14.2327443 C19.1804351,17.1879088 15.8123947,19.941465 11.3427578,20.3871272 C6.8731209,20.8327894 2.98854294,18.7954765 2.6986487,15.845617 C2.40875446,12.8904525 5.82423172,10.1368963 10.2885982,9.69123407 C10.8473035,9.63817972 11.3585705,9.62756804 11.8909208,9.64879005 Z M9.36093767,12.4925394 C7.83240686,12.6304832 6.38820747,13.5111959 5.73462848,14.7845165 C4.84386392,16.5194162 5.72408756,18.4400074 7.75861501,19.0713626 C9.86166384,19.7239397 12.3336679,18.7371156 13.1980788,16.8642735 C14.046677,15.0338755 12.9608932,13.1345049 10.8789276,12.6198715 C10.3782014,12.4925394 9.87220476,12.4447902 9.36093767,12.4925394 Z M8.3911108,15.2938448 C8.57031861,15.2991499 8.73371235,15.3575108 8.89710743,15.4211768 C9.55595687,15.6917578 9.76151834,16.4026945 9.36093767,17.0340496 C8.94981609,17.6600996 8.08013336,17.9625129 7.42128392,17.6707099 C6.7729754,17.3842135 6.58849847,16.6679703 6.99962006,16.0578371 C7.30532703,15.6015646 7.85876051,15.2885396 8.3911108,15.2938448 Z" id="形状"></path>
                </g>
            </g>
        </g>
    </g>
</svg>