<?xml version="1.0" encoding="UTF-8"?>
<svg width="304px" height="265px" viewBox="0 0 304 265" version="1.1" xmlns="http://www.w3.org/2000/svg" xmlns:xlink="http://www.w3.org/1999/xlink">
    <title>cherry-blossom</title>
    <defs>
        <polygon id="path-1" points="0 0 71 0 71 154 0 154"></polygon>
        <polygon id="path-3" points="0 0 147 0 147 79 0 79"></polygon>
        <polygon id="path-5" points="0 271 262 271 262 0 0 0"></polygon>
        <polygon id="path-7" points="0 0 62 0 62 41 0 41"></polygon>
        <polygon id="path-9" points="-8.29113759e-14 112 116 112 116 -3.0364469e-13 -8.29113759e-14 -3.0364469e-13"></polygon>
    </defs>
    <g id="cherry-blossom" stroke="none" stroke-width="1" fill="none" fill-rule="evenodd">
        <g transform="translate(0.000000, -34.000000)" id="编组">
            <g opacity="0.565662202" transform="translate(166.178174, 164.917654) rotate(15.000000) translate(-166.178174, -164.917654) translate(34.678174, 29.417654)">
                <path d="M66.2643268,166.084575 C41.7010012,200.511757 50.5530178,249 50.5530178,249 C50.5530178,249 99.2295053,241.670745 123.79163,207.242362 C148.354956,172.81518 155.388312,135.692871 139.502939,124.326937 C123.617567,112.961002 90.8276524,131.657393 66.2643268,166.084575" id="Fill-1" fill="#FEA6C8"></path>
                <path d="M138.362943,208.334136 C163.638839,242.433141 212.752511,249 212.752511,249 C212.752511,249 220.886963,200.280942 195.612275,166.180732 C170.336378,132.081727 137.031169,113.875918 121.221498,125.516073 C105.413035,137.156228 113.087046,174.235132 138.362943,208.334136" id="Fill-3" fill="#FEA6C8"></path>
                <path d="M201.204079,152.176996 C241.556159,138.821011 263,94.5136126 263,94.5136126 C263,94.5136126 219.022179,71.8588991 178.670099,85.2148841 C138.318018,98.5696705 110.651197,124.387486 116.874178,142.878268 C123.097158,161.369049 160.851999,165.532981 201.204079,152.176996" id="Fill-5" fill="#FEA6C8"></path>
                <g transform="translate(96.000000, 0.000000)">
                    <mask id="mask-2" fill="white">
                        <use xlink:href="#path-1"></use>
                    </mask>
                    <g id="Clip-8"></g>
                    <path d="M70.9946312,76.7162246 C70.6571183,34.1901404 34.887984,-0.00036246911 34.887984,-0.00036246911 C34.887984,-0.00036246911 -0.335102722,34.7568004 0.00241017179,77.2828846 C0.339923066,119.807761 16.5055853,154.155333 36.1102628,154 C55.713735,153.842402 71.3321441,119.242309 70.9946312,76.7162246" id="Fill-7" fill="#FEA6C8" mask="url(#mask-2)"></path>
                </g>
                <g transform="translate(0.000000, 81.000000)">
                    <mask id="mask-4" fill="white">
                        <use xlink:href="#path-3"></use>
                    </mask>
                    <g id="Clip-10"></g>
                    <path d="M83.7866994,3.82946065 C43.4103067,-9.01298838 -0.000240614956,14.5621652 -0.000240614956,14.5621652 C-0.000240614956,14.5621652 22.0521201,58.9600003 62.4273098,71.8024494 C102.803703,84.6448984 140.315574,79.8395711 146.21425,61.0697448 C152.112925,42.2987081 124.163092,16.6719097 83.7866994,3.82946065" id="Fill-9" fill="#FEA6C8" mask="url(#mask-4)"></path>
                </g>
                <path d="M119.830055,271 L119.830055,271 C123.053181,258.153033 138.94615,258.153033 142.17048,271 L142.17048,271 C142.17048,271 201.782656,201.473604 139.883721,125.981207 C137.160072,122.662196 134.20534,119.332307 130.999064,116 C127.792788,119.335933 124.838056,122.665822 122.116813,125.984833 C60.2166748,201.473604 119.830055,271 119.830055,271" id="Fill-11" fill="#EC688A"></path>
                <path d="M254.107537,190.412127 L254.107537,190.412127 C242.955348,183.355866 247.857937,168.157858 261,169.049723 L261,169.049723 C261,169.049723 213.653967,90.5341472 123.178368,126.368481 C119.199821,127.946489 115.140765,129.74232 111,131.776546 C113.16531,135.875253 115.401516,139.730723 117.700205,143.359899 C169.977666,225.906414 254.107537,190.412127 254.107537,190.412127" id="Fill-13" fill="#EC688A"></path>
                <path d="M218.856212,38.187429 L218.856212,38.187429 C208.68231,46.6788762 195.764816,37.2977913 200.698203,25 L200.698203,25 C200.698203,25 111.362783,46.0612065 117.281639,143.679609 C117.544027,147.973078 117.98779,152.410388 118.634693,157 C123.202913,156.193766 127.561947,155.244899 131.725097,154.165488 C226.425575,129.630343 218.856212,38.187429 218.856212,38.187429" id="Fill-15" fill="#EC688A"></path>
                <path d="M63.3021852,24 L63.3021852,24 C68.236888,36.2966951 55.3191155,45.6790748 45.1449942,37.1887586 L45.143785,37.1875498 C45.143785,37.1875498 37.5742581,128.631301 132.279197,153.169089 C136.444855,154.247301 140.803984,155.196176 145.369883,156 C146.014382,151.407928 146.458154,146.969369 146.71813,142.678278 C152.639531,45.0613994 63.3021852,24 63.3021852,24" id="Fill-17" fill="#EC688A"></path>
                <path d="M2,168.049566 L2,168.049566 C15.1409666,167.156483 20.0447966,182.354635 8.89372031,189.412174 L8.89251869,189.412174 C8.89251869,189.412174 93.0218616,224.9068 145.304548,142.358287 C147.602054,138.726656 149.838277,134.871149 152,130.773614 C147.856798,128.739368 143.797711,126.94473 139.819131,125.369127 C49.3464123,89.5332416 2,168.049566 2,168.049566" id="Fill-19" fill="#EC688A"></path>
                <path d="M148,138 C148,146.836989 140.83604,154 132.000611,154 C123.16396,154 116,146.836989 116,138 C116,129.163011 123.16396,122 132.000611,122 C140.83604,122 148,129.163011 148,138" id="Fill-21" fill="#FFFFFF"></path>
                <mask id="mask-6" fill="white">
                    <use xlink:href="#path-5"></use>
                </mask>
                <g id="Clip-24"></g>
                <polygon id="Fill-23" fill="#FFFFFF" mask="url(#mask-6)" points="131 130 133 130 133 101 131 101"></polygon>
                <path d="M136,102.5 C136,104.986005 133.985056,107 131.500611,107 C129.014944,107 127,104.986005 127,102.5 C127,100.013995 129.014944,98 131.500611,98 C133.985056,98 136,100.013995 136,102.5" id="Fill-25" fill="#FFFFFF" mask="url(#mask-6)"></path>
                <polygon id="Fill-26" fill="#FFFFFF" mask="url(#mask-6)" points="128.002306 131 116 104.861881 117.996453 104 130 130.138119"></polygon>
                <path d="M121.609719,103.670062 C122.620647,105.940065 121.59994,108.598792 119.329938,109.609719 C117.059935,110.620647 114.401208,109.59994 113.390281,107.329938 C112.379353,105.059935 113.40006,102.399986 115.670062,101.390281 C117.940065,100.379353 120.598792,101.40006 121.609719,103.670062" id="Fill-27" fill="#FFFFFF" mask="url(#mask-6)"></path>
                <polygon id="Fill-28" fill="#FFFFFF" mask="url(#mask-6)" points="125.562042 134 104 114.596991 105.439178 113 127 132.403009"></polygon>
                <path d="M108.510779,111.155859 C110.358148,112.818759 110.507307,115.66403 108.84333,117.511561 C107.180576,119.357869 104.335554,119.507041 102.489407,117.844141 C100.642038,116.181241 100.49288,113.33597 102.155634,111.488439 C103.819611,109.642131 106.664633,109.492959 108.510779,111.155859" id="Fill-29" fill="#FFFFFF" mask="url(#mask-6)"></path>
                <polygon id="Fill-30" fill="#FFFFFF" mask="url(#mask-6)" points="124.342002 137 97 128.042683 97.6579982 126 125 134.957317"></polygon>
                <path d="M99.8901539,123.221343 C102.25304,123.989046 103.546332,126.526868 102.778669,128.889878 C102.011006,131.25411 99.4733179,132.546248 97.1092097,131.778544 C94.7463238,131.010841 93.4530319,128.47302 94.2219172,126.11001 C94.98958,123.746999 97.5272681,122.45364 99.8901539,123.221343" id="Fill-31" fill="#FFFFFF" mask="url(#mask-6)"></path>
                <polygon id="Fill-32" fill="#FFFFFF" mask="url(#mask-6)" points="95.2239946 143 95 140.933192 123.776005 138 124 140.067989"></polygon>
                <path d="M96.0293754,138.024919 C98.5003944,137.765712 100.714652,139.558149 100.975081,142.03039 C101.234288,144.501409 99.4418515,146.715667 96.9696098,146.974874 C94.4985908,147.235303 92.2843328,145.441644 92.0251264,142.970625 C91.7646974,140.498383 93.5583564,138.285348 96.0293754,138.024919" id="Fill-33" fill="#FFFFFF" mask="url(#mask-6)"></path>
                <polygon id="Fill-34" fill="#FFFFFF" mask="url(#mask-6)" points="101.067133 158 100 156.180327 124.934079 142 126 143.819673"></polygon>
                <path d="M99.2501142,152.603348 C101.401791,151.361243 104.153738,152.098437 105.395842,154.250114 C106.63917,156.401791 105.901976,159.153738 103.749076,160.395842 C101.597398,161.63917 98.8454522,160.901976 97.6033476,158.749076 C96.361243,156.597398 97.098437,153.845452 99.2501142,152.603348" id="Fill-35" fill="#FFFFFF" mask="url(#mask-6)"></path>
                <polygon id="Fill-36" fill="#FFFFFF" mask="url(#mask-6)" points="110.758574 169 109 167.774241 126.241426 145 128 146.226943"></polygon>
                <path d="M107.859745,164.855056 C109.320737,162.844987 112.133912,162.398712 114.145069,163.859803 C116.155003,165.319671 116.601247,168.134257 115.140255,170.144327 C113.679263,172.155619 110.866088,172.600671 108.854931,171.140803 C106.844997,169.679712 106.398753,166.865126 107.859745,164.855056" id="Fill-37" fill="#FFFFFF" mask="url(#mask-6)"></path>
                <polygon id="Fill-38" fill="#FFFFFF" mask="url(#mask-6)" points="126.068117 174 124 173.566057 129.931883 146 132 146.435129"></polygon>
                <path d="M120.099357,172.564624 C120.616454,170.134406 123.005123,168.583125 125.435355,169.098997 C127.865587,169.61609 129.416877,172.004745 128.901003,174.434962 C128.383906,176.866402 125.995237,178.417683 123.565005,177.900589 C121.134773,177.384718 119.582261,174.994841 120.099357,172.564624" id="Fill-39" fill="#FFFFFF" mask="url(#mask-6)"></path>
                <polygon id="Fill-40" fill="#FFFFFF" mask="url(#mask-6)" points="138.931883 174 133 146.435129 135.068117 146 141 173.566057"></polygon>
                <path d="M135.099411,173.435376 C134.582317,171.005159 136.133598,168.616504 138.565038,168.099411 C140.995255,167.582317 143.38391,169.133598 143.901003,171.565038 C144.416875,173.995255 142.865594,176.38391 140.435376,176.901003 C138.005159,177.416875 135.616504,175.865594 135.099411,173.435376" id="Fill-41" fill="#FFFFFF" mask="url(#mask-6)"></path>
                <polygon id="Fill-42" fill="#FFFFFF" mask="url(#mask-6)" points="153.241426 168 136 145.225819 137.758574 144 155 166.774181"></polygon>
                <path d="M149.859745,169.144959 C148.398753,167.134907 148.844997,164.320345 150.854931,162.859266 C152.866088,161.399411 155.679263,161.844459 157.140255,163.854511 C158.601247,165.865786 158.155003,168.679126 156.145069,170.140204 C154.133912,171.601283 151.320737,171.155012 149.859745,169.144959" id="Fill-43" fill="#FFFFFF" mask="url(#mask-6)"></path>
                <polygon id="Fill-44" fill="#FFFFFF" mask="url(#mask-6)" points="163.932867 157 139 142.819673 140.065921 141 165 155.180327"></polygon>
                <path d="M160.250114,159.396652 C158.098437,158.154548 157.361243,155.402602 158.603348,153.250924 C159.845452,151.098024 162.597398,150.36083 164.749076,151.604158 C166.901976,152.846262 167.63917,155.598209 166.395842,157.749886 C165.153738,159.901563 162.401791,160.638757 160.250114,159.396652" id="Fill-45" fill="#FFFFFF" mask="url(#mask-6)"></path>
                <polygon id="Fill-46" fill="#FFFFFF" mask="url(#mask-6)" points="168.776005 143 140 140.067989 140.223995 138 169 140.933192"></polygon>
                <path d="M167.029375,145.975081 C164.558356,145.714652 162.764697,143.501617 163.025126,141.029375 C163.284333,138.558356 165.498591,136.764697 167.96961,137.025126 C170.441851,137.284333 172.234288,139.498591 171.975081,141.970832 C171.714652,144.441851 169.500394,146.234287 167.029375,145.975081" id="Fill-47" fill="#FFFFFF" mask="url(#mask-6)"></path>
                <polygon id="Fill-48" fill="#FFFFFF" mask="url(#mask-6)" points="140.657998 137 140 134.957317 167.342002 126 168 128.042683"></polygon>
                <path d="M166.890154,131.778657 C164.527268,132.54636 161.98958,131.253001 161.221917,128.88999 C160.453032,126.52698 161.746324,123.989159 164.10921,123.221456 C166.473318,122.453752 169.011006,123.74589 169.778669,126.110122 C170.546332,128.473132 169.25304,131.010954 166.890154,131.778657" id="Fill-49" fill="#FFFFFF" mask="url(#mask-6)"></path>
                <polygon id="Fill-50" fill="#FFFFFF" mask="url(#mask-6)" points="138.438034 134 137 132.403009 158.561966 113 160 114.596991"></polygon>
                <path d="M161.511134,117.844141 C159.6649,119.507041 156.819744,119.357869 155.155689,117.511561 C153.492856,115.66403 153.642022,112.818759 155.489478,111.155859 C157.335711,109.492959 160.180867,109.642131 161.8437,111.488439 C163.507756,113.33597 163.357367,116.181241 161.511134,117.844141" id="Fill-51" fill="#FFFFFF" mask="url(#mask-6)"></path>
                <polygon id="Fill-52" fill="#FFFFFF" mask="url(#mask-6)" points="135.997694 131 134 130.138119 146.003547 104 148 104.861881"></polygon>
                <path d="M150.609719,107.329938 C149.598792,109.59994 146.940065,110.620647 144.670062,109.609719 C142.40006,108.598792 141.379353,105.940065 142.390281,103.670062 C143.401208,101.40006 146.059935,100.379353 148.329938,101.390281 C150.59994,102.401208 151.620647,105.059935 150.609719,107.329938" id="Fill-53" fill="#FFFFFF" mask="url(#mask-6)"></path>
            </g>
            <g transform="translate(56.000000, 203.137895) rotate(-90.000000) translate(-56.000000, -203.137895) translate(-2.426424, 147.137895)">
                <path d="M75.7577039,9.12141514 C75.7577039,-7.48996056 57.2574212,4.13327113 57.2574212,4.13327113 C57.2574212,4.13327113 38.7577039,-7.48996056 38.7577039,9.12141514 C38.7577039,25.7327908 47.0403069,60.179485 57.2574212,60.179485 C67.4751008,60.179485 75.7577039,25.7327908 75.7577039,9.12141514" id="Fill-1" fill="#D17996"></path>
                <g transform="translate(0.291630, 23.545379)">
                    <mask id="mask-8" fill="white">
                        <use xlink:href="#path-7"></use>
                    </mask>
                    <g id="Clip-4"></g>
                    <path d="M18.3900165,0.813450208 C2.40231615,-4.37796166 7.82598162,16.9772306 7.82598162,16.9772306 C7.82598162,16.9772306 -9.12332924,31.0682057 6.86494116,36.2596176 C22.8526415,41.4504598 58.5867023,44.2802748 61.7696501,34.4921224 C64.9520279,24.7039699 34.3777169,6.00429247 18.3900165,0.813450208" id="Fill-3" fill="#D17996" mask="url(#mask-8)"></path>
                </g>
                <path d="M14.7259589,85.5741378 C4.95847684,99.0782661 26.7061265,100.513635 26.7061265,100.513635 C26.7061265,100.513635 34.7849357,120.84652 44.5524178,107.341826 C54.3198999,93.8376976 67.8974607,60.9606157 59.6614477,54.949725 C51.4248712,48.9388343 24.493441,72.0700096 14.7259589,85.5741378" id="Fill-5" fill="#D17996"></path>
                <path d="M70.9639973,107.302811 C80.7314794,120.806976 88.8102886,100.474036 88.8102886,100.474036 C88.8102886,100.474036 110.557938,99.0392288 100.790456,85.5344978 C91.0229741,72.0303329 64.0915439,48.8990947 55.8549675,54.9105677 C47.6189544,60.9214748 61.1965152,93.7986461 70.9639973,107.302811" id="Fill-7" fill="#D17996"></path>
                <path d="M109.988184,59.5334051 C125.975964,54.3426059 109.026569,40.2517476 109.026569,40.2517476 C109.026569,40.2517476 114.450832,18.8967323 98.4630518,24.0875315 C82.474702,29.2789004 51.9008092,47.9784229 55.0832028,57.7664942 C58.2655963,67.5545656 94.0004046,64.724774 109.988184,59.5334051" id="Fill-9" fill="#D17996"></path>
                <path d="M65.5493253,56.7053843 C65.5493253,60.847585 62.191526,64.2053843 58.0493253,64.2053843 C53.9071246,64.2053843 50.5493253,60.847585 50.5493253,56.7053843 C50.5493253,52.5631836 53.9071246,49.2053843 58.0493253,49.2053843 C62.191526,49.2053843 65.5493253,52.5631836 65.5493253,56.7053843" id="Fill-11" fill="#FFFFFF"></path>
                <mask id="mask-10" fill="white">
                    <use xlink:href="#path-9"></use>
                </mask>
                <g id="Clip-14"></g>
                <polygon id="Fill-13" fill="#FFFFFF" mask="url(#mask-10)" points="57.1868009 52.4526493 58.1868009 52.4526493 58.1868009 40.4526493 57.1868009 40.4526493"></polygon>
                <path d="M60.3256125,40.3828947 C60.3256125,41.4875795 59.4304268,42.3828947 58.3259017,42.3828947 C57.2213766,42.3828947 56.3256125,41.4875795 56.3256125,40.3828947 C56.3256125,39.27821 57.2213766,38.3828947 58.3259017,38.3828947 C59.4304268,38.3828947 60.3256125,39.27821 60.3256125,40.3828947" id="Fill-15" fill="#FFFFFF" mask="url(#mask-10)"></path>
                <polygon id="Fill-16" fill="#FFFFFF" mask="url(#mask-10)" points="56.6837258 53.7326894 51.5865595 42.1395076 52.4893931 41.7326894 57.5865595 53.3258713"></polygon>
                <path d="M53.8530946,40.7190558 C54.3023355,41.7279062 53.8484693,42.9096198 52.8395564,43.3588328 C51.8312218,43.8080459 50.6488569,43.3542077 50.199616,42.3453573 C49.7509534,41.3365069 50.2042414,40.1547933 51.2131542,39.7055802 C52.2220671,39.2563672 53.4038538,39.7102053 53.8530946,40.7190558" id="Fill-17" fill="#FFFFFF" mask="url(#mask-10)"></path>
                <polygon id="Fill-18" fill="#FFFFFF" mask="url(#mask-10)" points="55.1182424 53.5620549 45.7809337 45.2868611 46.4441875 44.5620549 55.7809337 52.8372487"></polygon>
                <path d="M47.2629655,44.0167142 C48.0835929,44.7558365 48.150099,46.0206725 47.4110138,46.8413411 C46.6719287,47.6620097 45.4071563,47.7285191 44.586529,46.9893969 C43.7653233,46.2502746 43.6993955,44.9854386 44.4384806,44.16477 C45.1775657,43.3441014 46.4423381,43.277592 47.2629655,44.0167142" id="Fill-19" fill="#FFFFFF" mask="url(#mask-10)"></path>
                <polygon id="Fill-20" fill="#FFFFFF" mask="url(#mask-10)" points="54.9397947 54.3595975 43.2394367 51.1407564 43.5396295 50.3595975 55.2394367 53.5784386"></polygon>
                <path d="M42.7048767,49.5404343 C43.7548025,49.8815629 44.3300647,51.0096 43.9883763,52.0601604 C43.647266,53.1101426 42.5192896,53.6848576 41.4693638,53.343729 C40.4188599,53.0026004 39.8441759,51.8745633 40.1852861,50.8240029 C40.5263964,49.7740206 41.6549509,49.1993057 42.7048767,49.5404343" id="Fill-21" fill="#FFFFFF" mask="url(#mask-10)"></path>
                <polygon id="Fill-22" fill="#FFFFFF" mask="url(#mask-10)" points="42.2232088 57.6905539 42.1246197 56.8334809 54.0260307 55.6905539 54.1246197 56.5476268"></polygon>
                <path d="M42.3711559,56.5070786 C43.4698621,56.3914282 44.4534932,57.1882597 44.5691465,58.2869389 C44.6842215,59.3850399 43.8873704,60.3692251 42.7892425,60.4848756 C41.6911146,60.5999478 40.7069052,59.8031162 40.591252,58.7050153 C40.4761769,57.6063361 41.2724498,56.6227291 42.3711559,56.5070786" id="Fill-23" fill="#FFFFFF" mask="url(#mask-10)"></path>
                <polygon id="Fill-24" fill="#FFFFFF" mask="url(#mask-10)" points="44.8598721 65.0295934 44.3806653 64.1885787 54.9020024 58.0295934 55.3806653 58.8711597"></polygon>
                <path d="M44.0418708,61.5538484 C44.9982586,61.0016413 46.2212093,61.3294962 46.7734163,62.2858841 C47.3256233,63.2422719 46.9977685,64.4652226 46.0413806,65.0174296 C45.0849927,65.5696366 43.8620421,65.2417818 43.3098351,64.2853939 C42.7576281,63.329006 43.0854829,62.1060554 44.0418708,61.5538484" id="Fill-25" fill="#FFFFFF" mask="url(#mask-10)"></path>
                <polygon id="Fill-26" fill="#FFFFFF" mask="url(#mask-10)" points="48.6494334 70.0805096 47.8660898 69.4845611 55.0827461 59.0805096 55.8660898 59.6764581"></polygon>
                <path d="M47.3946187,68.2120204 C48.0440086,67.318567 49.2942142,67.1202146 50.1882095,67.7696309 C51.0816266,68.4190472 51.2793927,69.6693037 50.6305811,70.5627572 C49.9811912,71.4567889 48.7304073,71.6545631 47.8369902,71.0051468 C46.9435732,70.3563087 46.7452288,69.1054739 47.3946187,68.2120204" id="Fill-27" fill="#FFFFFF" mask="url(#mask-10)"></path>
                <polygon id="Fill-28" fill="#FFFFFF" mask="url(#mask-10)" points="54.8035042 71.7446519 53.9916619 71.5469298 56.1798195 59.7446519 56.9916619 59.9423739"></polygon>
                <path d="M52.8969265,71.3987066 C53.1264794,70.3186968 54.1886673,69.6289474 55.2687801,69.8584784 C56.3488928,70.0880094 57.0387078,71.1500962 56.8085767,72.2301061 C56.5790239,73.3101159 55.5174141,73.9998653 54.4373014,73.7703343 C53.3571887,73.5408033 52.6673737,72.4787165 52.8969265,71.3987066" id="Fill-29" fill="#FFFFFF" mask="url(#mask-10)"></path>
                <polygon id="Fill-30" fill="#FFFFFF" mask="url(#mask-10)" points="60.4121254 71.4487002 58.2239677 59.6469625 59.03581 59.4487002 61.2239677 71.2509781"></polygon>
                <path d="M59.9507715,71.7368533 C59.7212088,70.6568435 60.4110532,69.5947567 61.491212,69.3652257 C62.5713708,69.1356947 63.6330258,69.825444 63.8625884,70.9054539 C64.0921511,71.9854637 63.4028849,73.0475505 62.3227261,73.2770815 C61.2425673,73.5066125 60.1803341,72.8168632 59.9507715,71.7368533" id="Fill-31" fill="#FFFFFF" mask="url(#mask-10)"></path>
                <polygon id="Fill-32" fill="#FFFFFF" mask="url(#mask-10)" points="67.7796636 69.1926547 60.5630073 58.7886032 61.3463509 58.1926547 68.5630073 68.5967062"></polygon>
                <path d="M65.8332611,70.6912672 C65.1838713,69.7978502 65.3822156,68.5470663 66.2756327,67.8976764 C67.1690498,67.2488648 68.4198337,67.4466309 69.0692236,68.3400479 C69.7180352,69.2340433 69.5202691,70.4842489 68.626852,71.1336388 C67.7328567,71.7830287 66.482651,71.5846843 65.8332611,70.6912672" id="Fill-33" fill="#FFFFFF" mask="url(#mask-10)"></path>
                <polygon id="Fill-34" fill="#FFFFFF" mask="url(#mask-10)" points="72.5853913 64.5018459 62.0645982 58.3434121 62.5432611 57.5018459 73.0645982 63.6608311"></polygon>
                <path d="M71.0437755,65.9646063 C70.0873876,65.4123993 69.7595327,64.1894487 70.3117398,63.2330608 C70.8639468,62.2766729 72.0868974,61.9488181 73.0432853,62.5010251 C73.9996732,63.0532321 74.327528,64.2761828 73.775321,65.2325706 C73.223114,66.1889585 72.0001633,66.5168134 71.0437755,65.9646063" id="Fill-35" fill="#FFFFFF" mask="url(#mask-10)"></path>
                <polygon id="Fill-36" fill="#FFFFFF" mask="url(#mask-10)" points="73.8754418 57.7202148 61.9740308 56.5772877 62.0726198 55.7202148 73.9740308 56.8631418"></polygon>
                <path d="M74.2614796,60.3812862 C73.1628004,60.2656358 72.3659689,59.2820288 72.4816193,58.1833496 C72.5972698,57.0852486 73.5808768,56.2884171 74.679556,56.4034893 C75.7776569,56.5191397 76.5744885,57.503325 76.4594163,58.6014259 C76.3437659,59.7001051 75.3595806,60.4969367 74.2614796,60.3812862" id="Fill-37" fill="#FFFFFF" mask="url(#mask-10)"></path>
                <polygon id="Fill-38" fill="#FFFFFF" mask="url(#mask-10)" points="61.9777211 54.4879089 61.6780792 53.70675 73.3778864 50.4879089 73.6780792 51.2690678"></polygon>
                <path d="M73.1843776,53.3388951 C72.1344519,53.6800236 71.0058973,53.1053087 70.6647871,52.0553264 C70.3236768,51.004766 70.8983608,49.8767289 71.9488648,49.5356003 C72.9987905,49.1944717 74.126767,49.7691867 74.4678772,50.8191689 C74.8095656,51.8697294 74.2343034,52.9977665 73.1843776,53.3388951" id="Fill-39" fill="#FFFFFF" mask="url(#mask-10)"></path>
                <polygon id="Fill-40" fill="#FFFFFF" mask="url(#mask-10)" points="61.3060207 53.2316084 60.6433294 52.5068022 69.9806381 44.2316084 70.6433294 44.9564146"></polygon>
                <path d="M70.6886234,47.4778157 C69.867996,48.2169379 68.6032236,48.1504285 67.8641385,47.3297599 C67.1250534,46.5090913 67.1909812,45.2442553 68.0121868,44.505133 C68.8328142,43.7660108 70.0975866,43.8325202 70.8366717,44.6531888 C71.5757568,45.4738574 71.5092507,46.7386934 70.6886234,47.4778157" id="Fill-41" fill="#FFFFFF" mask="url(#mask-10)"></path>
                <polygon id="Fill-42" fill="#FFFFFF" mask="url(#mask-10)" points="60.1992952 52.4847271 59.2964615 52.0779089 64.3936279 40.4847271 65.2964615 40.8915453"></polygon>
                <path d="M65.8939531,42.212386 C65.4447123,43.2212988 64.2629255,43.6745869 63.2540127,43.2259242 C62.2450999,42.7766834 61.7918118,41.5948966 62.2404745,40.5859838 C62.6897153,39.577071 63.8720802,39.1232047 64.8804149,39.5724456 C65.8893277,40.0216864 66.3431939,41.2034732 65.8939531,42.212386" id="Fill-43" fill="#FFFFFF" mask="url(#mask-10)"></path>
            </g>
        </g>
    </g>
</svg>