<?xml version="1.0" encoding="UTF-8"?>
<svg width="30px" height="18px" viewBox="0 0 30 18" version="1.1" xmlns="http://www.w3.org/2000/svg" xmlns:xlink="http://www.w3.org/1999/xlink">
    <title>chevron.up</title>
    <g id="控件" stroke="none" stroke-width="1" fill="none" fill-rule="evenodd">
        <g id="Back-to-Top" transform="translate(-27.000000, -33.000000)" fill="#000000" fill-rule="nonzero">
            <g id="chevron.up" transform="translate(27.000000, 33.000000)">
                <rect id="矩形" opacity="0" x="0" y="0" width="30" height="18"></rect>
                <path d="M0.456595976,13.9716606 C0.169109454,14.2436152 0,14.634551 0,15.0764838 C0,15.9603319 0.659526558,16.6232223 1.53889703,16.6232223 C1.97858487,16.6232223 2.38443911,16.4702489 2.63811316,16.1813069 L15.5919061,2.88952407 L13.78242,2.88952407 L26.7362995,16.1813069 C27.0067882,16.4702489 27.4126944,16.6232223 27.8353979,16.6232223 C28.7147458,16.6232223 29.3743434,15.9603319 29.3743434,15.0764838 C29.3743434,14.634551 29.2051581,14.2436152 28.9176989,13.9716606 L15.8286443,0.509915295 C15.5411678,0.186969 15.1183951,0 14.6956223,0 C14.255931,0 13.8500768,0.186969 13.5456818,0.509915295 L0.456595976,13.9716606 Z" id="路径" fill-opacity="0.85"></path>
            </g>
        </g>
    </g>
</svg>