<?xml version="1.0" encoding="UTF-8"?>
<svg width="112px" height="118px" viewBox="0 0 112 118" version="1.1" xmlns="http://www.w3.org/2000/svg" xmlns:xlink="http://www.w3.org/1999/xlink">
    <title>编组</title>
    <defs>
        <polygon id="path-1" points="0 0 62 0 62 41 0 41"></polygon>
        <polygon id="path-3" points="-8.29113759e-14 112 116 112 116 -3.0364469e-13 -8.29113759e-14 -3.0364469e-13"></polygon>
    </defs>
    <g id="页面-2" stroke="none" stroke-width="1" fill="none" fill-rule="evenodd">
        <g id="画板" transform="translate(-265.000000, -250.000000)">
            <g id="编组" transform="translate(321.000000, 309.137895) rotate(-90.000000) translate(-321.000000, -309.137895) translate(262.573576, 253.137895)">
                <path d="M75.7577039,9.12141514 C75.7577039,-7.48996056 57.2574212,4.13327113 57.2574212,4.13327113 C57.2574212,4.13327113 38.7577039,-7.48996056 38.7577039,9.12141514 C38.7577039,25.7327908 47.0403069,60.179485 57.2574212,60.179485 C67.4751008,60.179485 75.7577039,25.7327908 75.7577039,9.12141514" id="Fill-1" fill="#D17996"></path>
                <g transform="translate(0.291630, 23.545379)">
                    <mask id="mask-2" fill="white">
                        <use xlink:href="#path-1"></use>
                    </mask>
                    <g id="Clip-4"></g>
                    <path d="M18.3900165,0.813450208 C2.40231615,-4.37796166 7.82598162,16.9772306 7.82598162,16.9772306 C7.82598162,16.9772306 -9.12332924,31.0682057 6.86494116,36.2596176 C22.8526415,41.4504598 58.5867023,44.2802748 61.7696501,34.4921224 C64.9520279,24.7039699 34.3777169,6.00429247 18.3900165,0.813450208" id="Fill-3" fill="#D17996" mask="url(#mask-2)"></path>
                </g>
                <path d="M14.7259589,85.5741378 C4.95847684,99.0782661 26.7061265,100.513635 26.7061265,100.513635 C26.7061265,100.513635 34.7849357,120.84652 44.5524178,107.341826 C54.3198999,93.8376976 67.8974607,60.9606157 59.6614477,54.949725 C51.4248712,48.9388343 24.493441,72.0700096 14.7259589,85.5741378" id="Fill-5" fill="#D17996"></path>
                <path d="M70.9639973,107.302811 C80.7314794,120.806976 88.8102886,100.474036 88.8102886,100.474036 C88.8102886,100.474036 110.557938,99.0392288 100.790456,85.5344978 C91.0229741,72.0303329 64.0915439,48.8990947 55.8549675,54.9105677 C47.6189544,60.9214748 61.1965152,93.7986461 70.9639973,107.302811" id="Fill-7" fill="#D17996"></path>
                <path d="M109.988184,59.5334051 C125.975964,54.3426059 109.026569,40.2517476 109.026569,40.2517476 C109.026569,40.2517476 114.450832,18.8967323 98.4630518,24.0875315 C82.474702,29.2789004 51.9008092,47.9784229 55.0832028,57.7664942 C58.2655963,67.5545656 94.0004046,64.724774 109.988184,59.5334051" id="Fill-9" fill="#D17996"></path>
                <path d="M65.5493253,56.7053843 C65.5493253,60.847585 62.191526,64.2053843 58.0493253,64.2053843 C53.9071246,64.2053843 50.5493253,60.847585 50.5493253,56.7053843 C50.5493253,52.5631836 53.9071246,49.2053843 58.0493253,49.2053843 C62.191526,49.2053843 65.5493253,52.5631836 65.5493253,56.7053843" id="Fill-11" fill="#FFFFFF"></path>
                <mask id="mask-4" fill="white">
                    <use xlink:href="#path-3"></use>
                </mask>
                <g id="Clip-14"></g>
                <polygon id="Fill-13" fill="#FFFFFF" mask="url(#mask-4)" points="57.1868009 52.4526493 58.1868009 52.4526493 58.1868009 40.4526493 57.1868009 40.4526493"></polygon>
                <path d="M60.3256125,40.3828947 C60.3256125,41.4875795 59.4304268,42.3828947 58.3259017,42.3828947 C57.2213766,42.3828947 56.3256125,41.4875795 56.3256125,40.3828947 C56.3256125,39.27821 57.2213766,38.3828947 58.3259017,38.3828947 C59.4304268,38.3828947 60.3256125,39.27821 60.3256125,40.3828947" id="Fill-15" fill="#FFFFFF" mask="url(#mask-4)"></path>
                <polygon id="Fill-16" fill="#FFFFFF" mask="url(#mask-4)" points="56.6837258 53.7326894 51.5865595 42.1395076 52.4893931 41.7326894 57.5865595 53.3258713"></polygon>
                <path d="M53.8530946,40.7190558 C54.3023355,41.7279062 53.8484693,42.9096198 52.8395564,43.3588328 C51.8312218,43.8080459 50.6488569,43.3542077 50.199616,42.3453573 C49.7509534,41.3365069 50.2042414,40.1547933 51.2131542,39.7055802 C52.2220671,39.2563672 53.4038538,39.7102053 53.8530946,40.7190558" id="Fill-17" fill="#FFFFFF" mask="url(#mask-4)"></path>
                <polygon id="Fill-18" fill="#FFFFFF" mask="url(#mask-4)" points="55.1182424 53.5620549 45.7809337 45.2868611 46.4441875 44.5620549 55.7809337 52.8372487"></polygon>
                <path d="M47.2629655,44.0167142 C48.0835929,44.7558365 48.150099,46.0206725 47.4110138,46.8413411 C46.6719287,47.6620097 45.4071563,47.7285191 44.586529,46.9893969 C43.7653233,46.2502746 43.6993955,44.9854386 44.4384806,44.16477 C45.1775657,43.3441014 46.4423381,43.277592 47.2629655,44.0167142" id="Fill-19" fill="#FFFFFF" mask="url(#mask-4)"></path>
                <polygon id="Fill-20" fill="#FFFFFF" mask="url(#mask-4)" points="54.9397947 54.3595975 43.2394367 51.1407564 43.5396295 50.3595975 55.2394367 53.5784386"></polygon>
                <path d="M42.7048767,49.5404343 C43.7548025,49.8815629 44.3300647,51.0096 43.9883763,52.0601604 C43.647266,53.1101426 42.5192896,53.6848576 41.4693638,53.343729 C40.4188599,53.0026004 39.8441759,51.8745633 40.1852861,50.8240029 C40.5263964,49.7740206 41.6549509,49.1993057 42.7048767,49.5404343" id="Fill-21" fill="#FFFFFF" mask="url(#mask-4)"></path>
                <polygon id="Fill-22" fill="#FFFFFF" mask="url(#mask-4)" points="42.2232088 57.6905539 42.1246197 56.8334809 54.0260307 55.6905539 54.1246197 56.5476268"></polygon>
                <path d="M42.3711559,56.5070786 C43.4698621,56.3914282 44.4534932,57.1882597 44.5691465,58.2869389 C44.6842215,59.3850399 43.8873704,60.3692251 42.7892425,60.4848756 C41.6911146,60.5999478 40.7069052,59.8031162 40.591252,58.7050153 C40.4761769,57.6063361 41.2724498,56.6227291 42.3711559,56.5070786" id="Fill-23" fill="#FFFFFF" mask="url(#mask-4)"></path>
                <polygon id="Fill-24" fill="#FFFFFF" mask="url(#mask-4)" points="44.8598721 65.0295934 44.3806653 64.1885787 54.9020024 58.0295934 55.3806653 58.8711597"></polygon>
                <path d="M44.0418708,61.5538484 C44.9982586,61.0016413 46.2212093,61.3294962 46.7734163,62.2858841 C47.3256233,63.2422719 46.9977685,64.4652226 46.0413806,65.0174296 C45.0849927,65.5696366 43.8620421,65.2417818 43.3098351,64.2853939 C42.7576281,63.329006 43.0854829,62.1060554 44.0418708,61.5538484" id="Fill-25" fill="#FFFFFF" mask="url(#mask-4)"></path>
                <polygon id="Fill-26" fill="#FFFFFF" mask="url(#mask-4)" points="48.6494334 70.0805096 47.8660898 69.4845611 55.0827461 59.0805096 55.8660898 59.6764581"></polygon>
                <path d="M47.3946187,68.2120204 C48.0440086,67.318567 49.2942142,67.1202146 50.1882095,67.7696309 C51.0816266,68.4190472 51.2793927,69.6693037 50.6305811,70.5627572 C49.9811912,71.4567889 48.7304073,71.6545631 47.8369902,71.0051468 C46.9435732,70.3563087 46.7452288,69.1054739 47.3946187,68.2120204" id="Fill-27" fill="#FFFFFF" mask="url(#mask-4)"></path>
                <polygon id="Fill-28" fill="#FFFFFF" mask="url(#mask-4)" points="54.8035042 71.7446519 53.9916619 71.5469298 56.1798195 59.7446519 56.9916619 59.9423739"></polygon>
                <path d="M52.8969265,71.3987066 C53.1264794,70.3186968 54.1886673,69.6289474 55.2687801,69.8584784 C56.3488928,70.0880094 57.0387078,71.1500962 56.8085767,72.2301061 C56.5790239,73.3101159 55.5174141,73.9998653 54.4373014,73.7703343 C53.3571887,73.5408033 52.6673737,72.4787165 52.8969265,71.3987066" id="Fill-29" fill="#FFFFFF" mask="url(#mask-4)"></path>
                <polygon id="Fill-30" fill="#FFFFFF" mask="url(#mask-4)" points="60.4121254 71.4487002 58.2239677 59.6469625 59.03581 59.4487002 61.2239677 71.2509781"></polygon>
                <path d="M59.9507715,71.7368533 C59.7212088,70.6568435 60.4110532,69.5947567 61.491212,69.3652257 C62.5713708,69.1356947 63.6330258,69.825444 63.8625884,70.9054539 C64.0921511,71.9854637 63.4028849,73.0475505 62.3227261,73.2770815 C61.2425673,73.5066125 60.1803341,72.8168632 59.9507715,71.7368533" id="Fill-31" fill="#FFFFFF" mask="url(#mask-4)"></path>
                <polygon id="Fill-32" fill="#FFFFFF" mask="url(#mask-4)" points="67.7796636 69.1926547 60.5630073 58.7886032 61.3463509 58.1926547 68.5630073 68.5967062"></polygon>
                <path d="M65.8332611,70.6912672 C65.1838713,69.7978502 65.3822156,68.5470663 66.2756327,67.8976764 C67.1690498,67.2488648 68.4198337,67.4466309 69.0692236,68.3400479 C69.7180352,69.2340433 69.5202691,70.4842489 68.626852,71.1336388 C67.7328567,71.7830287 66.482651,71.5846843 65.8332611,70.6912672" id="Fill-33" fill="#FFFFFF" mask="url(#mask-4)"></path>
                <polygon id="Fill-34" fill="#FFFFFF" mask="url(#mask-4)" points="72.5853913 64.5018459 62.0645982 58.3434121 62.5432611 57.5018459 73.0645982 63.6608311"></polygon>
                <path d="M71.0437755,65.9646063 C70.0873876,65.4123993 69.7595327,64.1894487 70.3117398,63.2330608 C70.8639468,62.2766729 72.0868974,61.9488181 73.0432853,62.5010251 C73.9996732,63.0532321 74.327528,64.2761828 73.775321,65.2325706 C73.223114,66.1889585 72.0001633,66.5168134 71.0437755,65.9646063" id="Fill-35" fill="#FFFFFF" mask="url(#mask-4)"></path>
                <polygon id="Fill-36" fill="#FFFFFF" mask="url(#mask-4)" points="73.8754418 57.7202148 61.9740308 56.5772877 62.0726198 55.7202148 73.9740308 56.8631418"></polygon>
                <path d="M74.2614796,60.3812862 C73.1628004,60.2656358 72.3659689,59.2820288 72.4816193,58.1833496 C72.5972698,57.0852486 73.5808768,56.2884171 74.679556,56.4034893 C75.7776569,56.5191397 76.5744885,57.503325 76.4594163,58.6014259 C76.3437659,59.7001051 75.3595806,60.4969367 74.2614796,60.3812862" id="Fill-37" fill="#FFFFFF" mask="url(#mask-4)"></path>
                <polygon id="Fill-38" fill="#FFFFFF" mask="url(#mask-4)" points="61.9777211 54.4879089 61.6780792 53.70675 73.3778864 50.4879089 73.6780792 51.2690678"></polygon>
                <path d="M73.1843776,53.3388951 C72.1344519,53.6800236 71.0058973,53.1053087 70.6647871,52.0553264 C70.3236768,51.004766 70.8983608,49.8767289 71.9488648,49.5356003 C72.9987905,49.1944717 74.126767,49.7691867 74.4678772,50.8191689 C74.8095656,51.8697294 74.2343034,52.9977665 73.1843776,53.3388951" id="Fill-39" fill="#FFFFFF" mask="url(#mask-4)"></path>
                <polygon id="Fill-40" fill="#FFFFFF" mask="url(#mask-4)" points="61.3060207 53.2316084 60.6433294 52.5068022 69.9806381 44.2316084 70.6433294 44.9564146"></polygon>
                <path d="M70.6886234,47.4778157 C69.867996,48.2169379 68.6032236,48.1504285 67.8641385,47.3297599 C67.1250534,46.5090913 67.1909812,45.2442553 68.0121868,44.505133 C68.8328142,43.7660108 70.0975866,43.8325202 70.8366717,44.6531888 C71.5757568,45.4738574 71.5092507,46.7386934 70.6886234,47.4778157" id="Fill-41" fill="#FFFFFF" mask="url(#mask-4)"></path>
                <polygon id="Fill-42" fill="#FFFFFF" mask="url(#mask-4)" points="60.1992952 52.4847271 59.2964615 52.0779089 64.3936279 40.4847271 65.2964615 40.8915453"></polygon>
                <path d="M65.8939531,42.212386 C65.4447123,43.2212988 64.2629255,43.6745869 63.2540127,43.2259242 C62.2450999,42.7766834 61.7918118,41.5948966 62.2404745,40.5859838 C62.6897153,39.577071 63.8720802,39.1232047 64.8804149,39.5724456 C65.8893277,40.0216864 66.3431939,41.2034732 65.8939531,42.212386" id="Fill-43" fill="#FFFFFF" mask="url(#mask-4)"></path>
            </g>
        </g>
    </g>
</svg>