<?xml version="1.0" encoding="UTF-8"?>
<svg width="325px" height="330px" viewBox="0 0 325 330" version="1.1" xmlns="http://www.w3.org/2000/svg" xmlns:xlink="http://www.w3.org/1999/xlink">
    <title>编组</title>
    <defs>
        <polygon id="path-1" points="0 0 71 0 71 154 0 154"></polygon>
        <polygon id="path-3" points="0 0 147 0 147 79 0 79"></polygon>
        <polygon id="path-5" points="0 271 262 271 262 0 0 0"></polygon>
    </defs>
    <g id="页面-2" stroke="none" stroke-width="1" fill="none" fill-rule="evenodd" opacity="0.565662202">
        <g id="画板" transform="translate(-269.000000, -106.000000)">
            <g id="编组" transform="translate(431.178174, 270.917654) rotate(15.000000) translate(-431.178174, -270.917654) translate(299.678174, 135.417654)">
                <path d="M66.2643268,166.084575 C41.7010012,200.511757 50.5530178,249 50.5530178,249 C50.5530178,249 99.2295053,241.670745 123.79163,207.242362 C148.354956,172.81518 155.388312,135.692871 139.502939,124.326937 C123.617567,112.961002 90.8276524,131.657393 66.2643268,166.084575" id="Fill-1" fill="#FEA6C8"></path>
                <path d="M138.362943,208.334136 C163.638839,242.433141 212.752511,249 212.752511,249 C212.752511,249 220.886963,200.280942 195.612275,166.180732 C170.336378,132.081727 137.031169,113.875918 121.221498,125.516073 C105.413035,137.156228 113.087046,174.235132 138.362943,208.334136" id="Fill-3" fill="#FEA6C8"></path>
                <path d="M201.204079,152.176996 C241.556159,138.821011 263,94.5136126 263,94.5136126 C263,94.5136126 219.022179,71.8588991 178.670099,85.2148841 C138.318018,98.5696705 110.651197,124.387486 116.874178,142.878268 C123.097158,161.369049 160.851999,165.532981 201.204079,152.176996" id="Fill-5" fill="#FEA6C8"></path>
                <g transform="translate(96.000000, 0.000000)">
                    <mask id="mask-2" fill="white">
                        <use xlink:href="#path-1"></use>
                    </mask>
                    <g id="Clip-8"></g>
                    <path d="M70.9946312,76.7162246 C70.6571183,34.1901404 34.887984,-0.00036246911 34.887984,-0.00036246911 C34.887984,-0.00036246911 -0.335102722,34.7568004 0.00241017179,77.2828846 C0.339923066,119.807761 16.5055853,154.155333 36.1102628,154 C55.713735,153.842402 71.3321441,119.242309 70.9946312,76.7162246" id="Fill-7" fill="#FEA6C8" mask="url(#mask-2)"></path>
                </g>
                <g transform="translate(0.000000, 81.000000)">
                    <mask id="mask-4" fill="white">
                        <use xlink:href="#path-3"></use>
                    </mask>
                    <g id="Clip-10"></g>
                    <path d="M83.7866994,3.82946065 C43.4103067,-9.01298838 -0.000240614956,14.5621652 -0.000240614956,14.5621652 C-0.000240614956,14.5621652 22.0521201,58.9600003 62.4273098,71.8024494 C102.803703,84.6448984 140.315574,79.8395711 146.21425,61.0697448 C152.112925,42.2987081 124.163092,16.6719097 83.7866994,3.82946065" id="Fill-9" fill="#FEA6C8" mask="url(#mask-4)"></path>
                </g>
                <path d="M119.830055,271 L119.830055,271 C123.053181,258.153033 138.94615,258.153033 142.17048,271 L142.17048,271 C142.17048,271 201.782656,201.473604 139.883721,125.981207 C137.160072,122.662196 134.20534,119.332307 130.999064,116 C127.792788,119.335933 124.838056,122.665822 122.116813,125.984833 C60.2166748,201.473604 119.830055,271 119.830055,271" id="Fill-11" fill="#EC688A"></path>
                <path d="M254.107537,190.412127 L254.107537,190.412127 C242.955348,183.355866 247.857937,168.157858 261,169.049723 L261,169.049723 C261,169.049723 213.653967,90.5341472 123.178368,126.368481 C119.199821,127.946489 115.140765,129.74232 111,131.776546 C113.16531,135.875253 115.401516,139.730723 117.700205,143.359899 C169.977666,225.906414 254.107537,190.412127 254.107537,190.412127" id="Fill-13" fill="#EC688A"></path>
                <path d="M218.856212,38.187429 L218.856212,38.187429 C208.68231,46.6788762 195.764816,37.2977913 200.698203,25 L200.698203,25 C200.698203,25 111.362783,46.0612065 117.281639,143.679609 C117.544027,147.973078 117.98779,152.410388 118.634693,157 C123.202913,156.193766 127.561947,155.244899 131.725097,154.165488 C226.425575,129.630343 218.856212,38.187429 218.856212,38.187429" id="Fill-15" fill="#EC688A"></path>
                <path d="M63.3021852,24 L63.3021852,24 C68.236888,36.2966951 55.3191155,45.6790748 45.1449942,37.1887586 L45.143785,37.1875498 C45.143785,37.1875498 37.5742581,128.631301 132.279197,153.169089 C136.444855,154.247301 140.803984,155.196176 145.369883,156 C146.014382,151.407928 146.458154,146.969369 146.71813,142.678278 C152.639531,45.0613994 63.3021852,24 63.3021852,24" id="Fill-17" fill="#EC688A"></path>
                <path d="M2,168.049566 L2,168.049566 C15.1409666,167.156483 20.0447966,182.354635 8.89372031,189.412174 L8.89251869,189.412174 C8.89251869,189.412174 93.0218616,224.9068 145.304548,142.358287 C147.602054,138.726656 149.838277,134.871149 152,130.773614 C147.856798,128.739368 143.797711,126.94473 139.819131,125.369127 C49.3464123,89.5332416 2,168.049566 2,168.049566" id="Fill-19" fill="#EC688A"></path>
                <path d="M148,138 C148,146.836989 140.83604,154 132.000611,154 C123.16396,154 116,146.836989 116,138 C116,129.163011 123.16396,122 132.000611,122 C140.83604,122 148,129.163011 148,138" id="Fill-21" fill="#FFFFFF"></path>
                <mask id="mask-6" fill="white">
                    <use xlink:href="#path-5"></use>
                </mask>
                <g id="Clip-24"></g>
                <polygon id="Fill-23" fill="#FFFFFF" mask="url(#mask-6)" points="131 130 133 130 133 101 131 101"></polygon>
                <path d="M136,102.5 C136,104.986005 133.985056,107 131.500611,107 C129.014944,107 127,104.986005 127,102.5 C127,100.013995 129.014944,98 131.500611,98 C133.985056,98 136,100.013995 136,102.5" id="Fill-25" fill="#FFFFFF" mask="url(#mask-6)"></path>
                <polygon id="Fill-26" fill="#FFFFFF" mask="url(#mask-6)" points="128.002306 131 116 104.861881 117.996453 104 130 130.138119"></polygon>
                <path d="M121.609719,103.670062 C122.620647,105.940065 121.59994,108.598792 119.329938,109.609719 C117.059935,110.620647 114.401208,109.59994 113.390281,107.329938 C112.379353,105.059935 113.40006,102.399986 115.670062,101.390281 C117.940065,100.379353 120.598792,101.40006 121.609719,103.670062" id="Fill-27" fill="#FFFFFF" mask="url(#mask-6)"></path>
                <polygon id="Fill-28" fill="#FFFFFF" mask="url(#mask-6)" points="125.562042 134 104 114.596991 105.439178 113 127 132.403009"></polygon>
                <path d="M108.510779,111.155859 C110.358148,112.818759 110.507307,115.66403 108.84333,117.511561 C107.180576,119.357869 104.335554,119.507041 102.489407,117.844141 C100.642038,116.181241 100.49288,113.33597 102.155634,111.488439 C103.819611,109.642131 106.664633,109.492959 108.510779,111.155859" id="Fill-29" fill="#FFFFFF" mask="url(#mask-6)"></path>
                <polygon id="Fill-30" fill="#FFFFFF" mask="url(#mask-6)" points="124.342002 137 97 128.042683 97.6579982 126 125 134.957317"></polygon>
                <path d="M99.8901539,123.221343 C102.25304,123.989046 103.546332,126.526868 102.778669,128.889878 C102.011006,131.25411 99.4733179,132.546248 97.1092097,131.778544 C94.7463238,131.010841 93.4530319,128.47302 94.2219172,126.11001 C94.98958,123.746999 97.5272681,122.45364 99.8901539,123.221343" id="Fill-31" fill="#FFFFFF" mask="url(#mask-6)"></path>
                <polygon id="Fill-32" fill="#FFFFFF" mask="url(#mask-6)" points="95.2239946 143 95 140.933192 123.776005 138 124 140.067989"></polygon>
                <path d="M96.0293754,138.024919 C98.5003944,137.765712 100.714652,139.558149 100.975081,142.03039 C101.234288,144.501409 99.4418515,146.715667 96.9696098,146.974874 C94.4985908,147.235303 92.2843328,145.441644 92.0251264,142.970625 C91.7646974,140.498383 93.5583564,138.285348 96.0293754,138.024919" id="Fill-33" fill="#FFFFFF" mask="url(#mask-6)"></path>
                <polygon id="Fill-34" fill="#FFFFFF" mask="url(#mask-6)" points="101.067133 158 100 156.180327 124.934079 142 126 143.819673"></polygon>
                <path d="M99.2501142,152.603348 C101.401791,151.361243 104.153738,152.098437 105.395842,154.250114 C106.63917,156.401791 105.901976,159.153738 103.749076,160.395842 C101.597398,161.63917 98.8454522,160.901976 97.6033476,158.749076 C96.361243,156.597398 97.098437,153.845452 99.2501142,152.603348" id="Fill-35" fill="#FFFFFF" mask="url(#mask-6)"></path>
                <polygon id="Fill-36" fill="#FFFFFF" mask="url(#mask-6)" points="110.758574 169 109 167.774241 126.241426 145 128 146.226943"></polygon>
                <path d="M107.859745,164.855056 C109.320737,162.844987 112.133912,162.398712 114.145069,163.859803 C116.155003,165.319671 116.601247,168.134257 115.140255,170.144327 C113.679263,172.155619 110.866088,172.600671 108.854931,171.140803 C106.844997,169.679712 106.398753,166.865126 107.859745,164.855056" id="Fill-37" fill="#FFFFFF" mask="url(#mask-6)"></path>
                <polygon id="Fill-38" fill="#FFFFFF" mask="url(#mask-6)" points="126.068117 174 124 173.566057 129.931883 146 132 146.435129"></polygon>
                <path d="M120.099357,172.564624 C120.616454,170.134406 123.005123,168.583125 125.435355,169.098997 C127.865587,169.61609 129.416877,172.004745 128.901003,174.434962 C128.383906,176.866402 125.995237,178.417683 123.565005,177.900589 C121.134773,177.384718 119.582261,174.994841 120.099357,172.564624" id="Fill-39" fill="#FFFFFF" mask="url(#mask-6)"></path>
                <polygon id="Fill-40" fill="#FFFFFF" mask="url(#mask-6)" points="138.931883 174 133 146.435129 135.068117 146 141 173.566057"></polygon>
                <path d="M135.099411,173.435376 C134.582317,171.005159 136.133598,168.616504 138.565038,168.099411 C140.995255,167.582317 143.38391,169.133598 143.901003,171.565038 C144.416875,173.995255 142.865594,176.38391 140.435376,176.901003 C138.005159,177.416875 135.616504,175.865594 135.099411,173.435376" id="Fill-41" fill="#FFFFFF" mask="url(#mask-6)"></path>
                <polygon id="Fill-42" fill="#FFFFFF" mask="url(#mask-6)" points="153.241426 168 136 145.225819 137.758574 144 155 166.774181"></polygon>
                <path d="M149.859745,169.144959 C148.398753,167.134907 148.844997,164.320345 150.854931,162.859266 C152.866088,161.399411 155.679263,161.844459 157.140255,163.854511 C158.601247,165.865786 158.155003,168.679126 156.145069,170.140204 C154.133912,171.601283 151.320737,171.155012 149.859745,169.144959" id="Fill-43" fill="#FFFFFF" mask="url(#mask-6)"></path>
                <polygon id="Fill-44" fill="#FFFFFF" mask="url(#mask-6)" points="163.932867 157 139 142.819673 140.065921 141 165 155.180327"></polygon>
                <path d="M160.250114,159.396652 C158.098437,158.154548 157.361243,155.402602 158.603348,153.250924 C159.845452,151.098024 162.597398,150.36083 164.749076,151.604158 C166.901976,152.846262 167.63917,155.598209 166.395842,157.749886 C165.153738,159.901563 162.401791,160.638757 160.250114,159.396652" id="Fill-45" fill="#FFFFFF" mask="url(#mask-6)"></path>
                <polygon id="Fill-46" fill="#FFFFFF" mask="url(#mask-6)" points="168.776005 143 140 140.067989 140.223995 138 169 140.933192"></polygon>
                <path d="M167.029375,145.975081 C164.558356,145.714652 162.764697,143.501617 163.025126,141.029375 C163.284333,138.558356 165.498591,136.764697 167.96961,137.025126 C170.441851,137.284333 172.234288,139.498591 171.975081,141.970832 C171.714652,144.441851 169.500394,146.234287 167.029375,145.975081" id="Fill-47" fill="#FFFFFF" mask="url(#mask-6)"></path>
                <polygon id="Fill-48" fill="#FFFFFF" mask="url(#mask-6)" points="140.657998 137 140 134.957317 167.342002 126 168 128.042683"></polygon>
                <path d="M166.890154,131.778657 C164.527268,132.54636 161.98958,131.253001 161.221917,128.88999 C160.453032,126.52698 161.746324,123.989159 164.10921,123.221456 C166.473318,122.453752 169.011006,123.74589 169.778669,126.110122 C170.546332,128.473132 169.25304,131.010954 166.890154,131.778657" id="Fill-49" fill="#FFFFFF" mask="url(#mask-6)"></path>
                <polygon id="Fill-50" fill="#FFFFFF" mask="url(#mask-6)" points="138.438034 134 137 132.403009 158.561966 113 160 114.596991"></polygon>
                <path d="M161.511134,117.844141 C159.6649,119.507041 156.819744,119.357869 155.155689,117.511561 C153.492856,115.66403 153.642022,112.818759 155.489478,111.155859 C157.335711,109.492959 160.180867,109.642131 161.8437,111.488439 C163.507756,113.33597 163.357367,116.181241 161.511134,117.844141" id="Fill-51" fill="#FFFFFF" mask="url(#mask-6)"></path>
                <polygon id="Fill-52" fill="#FFFFFF" mask="url(#mask-6)" points="135.997694 131 134 130.138119 146.003547 104 148 104.861881"></polygon>
                <path d="M150.609719,107.329938 C149.598792,109.59994 146.940065,110.620647 144.670062,109.609719 C142.40006,108.598792 141.379353,105.940065 142.390281,103.670062 C143.401208,101.40006 146.059935,100.379353 148.329938,101.390281 C150.59994,102.401208 151.620647,105.059935 150.609719,107.329938" id="Fill-53" fill="#FFFFFF" mask="url(#mask-6)"></path>
            </g>
        </g>
    </g>
</svg>